<?xml version="1.0" encoding="UTF-8"?>
<!DOCTYPE svg PUBLIC "-//W3C//DTD SVG 1.1//EN" "http://www.w3.org/Graphics/SVG/1.1/DTD/svg11.dtd">
<!-- Creator: CorelDRAW 2018 (64-Bit) -->
<svg xmlns="http://www.w3.org/2000/svg" xml:space="preserve" width="200mm" height="200mm" version="1.1" style="shape-rendering:geometricPrecision; text-rendering:geometricPrecision; image-rendering:optimizeQuality; fill-rule:evenodd; clip-rule:evenodd"
viewBox="0 0 20000 20000"
 xmlns:xlink="http://www.w3.org/1999/xlink">
 <defs>
  <style type="text/css">
   <![CDATA[
    .fil0 {fill:#FEFEFE}
    .fil1 {fill:#E31E24}
    .fil2 {fill:#838383}
    .fil3 {fill:#B5B5B5}
   ]]>
  </style>
 </defs>
 <g id="Katman_x0020_1">
  <metadata id="CorelCorpID_0Corel-Layer"/>
  <g id="_2048119591984">
   <g>
    <path class="fil0" d="M12370.75 19319.48c125,-83.57 568.06,-547.68 708.91,-690.44l2084.94 -2084.25c478.3,-467.75 933.76,-965.06 1390.49,-1394.43l1048.08 -1056.24c76.08,-78.01 302.72,-274.08 326.28,-369.61l-1465.37 0.82c-611.1,-1.62 -496.71,-46.97 -741.21,193.53l-3803.95 3796.32c-108.58,109.37 -517.15,469.27 -562.93,616.39 38.27,33.79 92.16,93.04 127.04,133.63 131.97,153.61 814.27,833.13 887.72,854.28z"/>
    <path class="fil0" d="M12882.42 6282.73l1487.05 -3.16c-2.69,-102.16 -922.95,-965.79 -1012.47,-1057.39 -125.97,-128.91 -980.36,-1013.22 -1062.05,-1042.39 -107.48,70.54 -469.4,456.93 -595.98,579.99 -534.08,519.25 -444.6,418.39 -254.81,613.12l878.98 882.38c82.07,58.27 429.54,28.45 559.28,27.45z"/>
   </g>
   <path class="fil1" d="M8443.39 2110.08c121.7,-121.93 314.51,-265.15 387.28,-411.98 -112.06,-116.8 -949.52,-973.58 -1027,-1004.33l-484.74 462.63c-261.4,260.29 -452.97,471.8 -710.08,710.4l-702.46 700.71c-436.65,438.42 -993.72,970.15 -1414.67,1409.49 -156.87,163.72 -322.92,307.73 -466.03,462.83 -312.6,338.81 -622.31,620.98 -944.85,950.27l-942.13 932.92c-231.73,220.37 -1801.15,1769.92 -1865.69,1894.27 44.94,113.33 135.62,169.46 220.33,260.88 82.94,89.52 151.82,158.78 234.76,239.3 177.23,172.06 317.55,316.66 473.94,473.2l4701.2 4679.31c457.22,446.87 964.55,974.77 1419.61,1404.23 569.91,537.84 401.13,589.87 770.36,225.58l508.27 -515.02c65.72,-64.81 210.41,-172.33 250.89,-248.27 -32.1,-102.54 -106.68,-143.92 -194.16,-229.36l-1636.78 -1623.06c-62.25,-59.12 -134.19,-129.07 -200.78,-196.66l-4493.73 -4470.13 6116.46 -6107.21z"/>
   <path class="fil2" d="M5302.21 8746.98c94.54,-39.9 1446.2,-1408.99 1635.82,-1603.55 551.08,-565.37 1098.18,-1093.54 1632.25,-1627.58 277.45,-277.43 521.93,-535.37 816.91,-812.7 272.23,-255.92 522.34,-542.11 815.97,-813.27 132.8,-122.63 283.76,-285.54 408.13,-407.88l607.47 -605.8c78.16,-72.15 125.81,-139.33 206.59,-208.74 104.88,-90.12 308.84,-351.79 414.78,-403.56 70.43,30.83 266.77,242.61 320.24,305.98 97.57,115.69 209.41,214.38 311.81,315.44 97.13,95.85 225.69,218.8 313.4,312.16 213.42,227.17 449.24,436.55 631.25,638.48 47.14,52.31 96.85,107.35 146.28,156.76 53.29,53.26 114.36,100.5 168.9,153.3 683.22,661.62 1388.9,1384.2 2046.27,2047.46 85.08,85.84 75.48,90.28 230.25,89.8 215.04,-0.67 430,-0.98 645.04,-1.22 415.1,-0.46 851.26,10.52 1263.74,-6.2 -10.27,-57.67 -131.09,-152.63 -170.92,-193.64 -680.9,-701.16 -1418.27,-1410.2 -2084.99,-2084.49 -234.32,-236.99 -499.09,-519.02 -763,-772.01 -275.02,-263.62 -466.63,-447.99 -757.57,-758.13 -268.7,-286.4 -498.8,-482.5 -769.73,-764.97 -265.83,-277.13 -509.83,-508.41 -755.31,-761.33 -91.95,-94.73 -699.09,-723.07 -775.66,-758.75 -89.02,36.39 -898.71,868.18 -1075.3,1046l-5883.67 5885.73c-96.32,93.49 -177.26,174.48 -269.09,259.96 -109.59,102 -183.18,166.51 -279.62,272.29 -92.53,101.49 -23.49,128.39 156.11,304 132.05,129.14 760.94,770.33 813.65,796.46z"/>
   <path class="fil3" d="M1853.21 11323.05c-86.34,19.19 -716.87,698.17 -818.47,793.73 -191.29,179.93 -237.14,199.35 -145.91,305.01l1057.68 1064.92c212.23,190.93 368.03,362.7 533.95,527.5l1062 1060.53c517.07,525.13 1070.28,1058.86 1586.58,1597.92 93.66,97.8 182.61,167.14 272.13,257.97l795.18 796.07c327.85,318.11 736.16,725.44 1064.57,1059.18l797.9 793.24c50.73,52 205.92,231.99 275.48,255.25l776.08 -759.73c116.01,-132.96 247.88,-231.48 390.74,-385.4l770.67 -765.25c122.09,-140.22 254.45,-256.04 377.87,-378.88l1911.83 -1897.93c334.81,-309.44 858.71,-851.5 1149.5,-1143.34 118.63,-119.05 260.61,-257.61 380.79,-377.23 84.94,-84.55 346.97,-283.14 370.43,-400.89 -603.89,-16.62 -1298.04,-0.75 -1921.65,-3.34 -155.91,-0.65 -148.46,18.6 -228.25,102.89 -408.09,431.11 -983.18,963.28 -1427.33,1416.58l-1275.26 1262.14c-209.89,213.29 -441.8,429.47 -638.98,631.48 -97.52,99.9 -547.79,573.46 -636.44,609.71l-2035.67 -2015.27c-114.88,-116.5 -264.01,-275.56 -400.24,-396.73 -363.54,-323.37 -1184.03,-1189.05 -1615.59,-1604.63 -67.89,-65.38 -140.55,-144.2 -207.55,-210.1 -327.16,-321.85 -2178.21,-2178.69 -2222.04,-2195.4z"/>
   <path class="fil1" d="M10443.35 11813.41c-31.89,-151.3 -24.25,-1256 -4.6,-1443.25 478.74,-34.92 1096.44,-7.94 1587.43,-3.25 1045.39,9.97 1025.37,995.9 634.02,1274.6 -337.88,240.62 -952.38,176.04 -1411.42,177.27 -224.08,0.58 -598.77,22.62 -805.43,-5.37zm-3.75 -3489.82c221.26,-21.34 522.46,-4.36 752.32,-4.1 675.23,0.73 1562.88,-134.04 1556.06,661.4 -4.2,490.14 -345.1,659.63 -835.93,657.14 -467.62,-2.39 -1016.33,30.61 -1480.03,-1.11l7.58 -1313.33zm2609.74 1642.49c41.54,-92.65 530.58,-303.22 571.97,-946.74 62.44,-970.87 -667.9,-1430.85 -1557.64,-1437.85l-2255.18 -0.76c-182,-1 -242.95,-48.94 -243.65,128.34 -2.76,691.87 -18.21,4819.18 16.29,4855.92 94.52,48.6 1630.08,22.89 1876.11,22.73 686.84,-0.47 1121.27,32 1650.16,-231.1 226.36,-112.6 374.3,-250.78 497.94,-450.01 275.92,-444.63 263.74,-1346.35 -298.64,-1744.32 -81.71,-57.82 -208.65,-135.3 -257.36,-196.21z"/>
   <path class="fil1" d="M15654.73 9359.65c87.71,-388.4 479.5,-792.15 820.96,-950.73 441.36,-204.96 1059.82,-173.9 1479.29,25.42 771.98,366.81 1141.06,1478.33 799.52,2501.72 -243.03,728.25 -825.17,1078.08 -1574.21,1077.88 -708.78,-0.19 -1336.41,-379.61 -1540.43,-1094.1 -187.28,-655.86 -117.77,-959.34 2.83,-1562.69l12.04 2.5zm4089.33 1118.11c101.47,-808.71 -152.34,-1555.42 -530.29,-2052.34 -828.02,-1088.65 -2657.39,-1229.14 -3709.16,-344.42 -1427.18,1200.48 -1185.91,4418.67 1341.36,4697.04 830.08,91.43 1576.68,-155.69 2036.61,-559.34 507.67,-445.6 759.5,-928.09 861.48,-1740.94z"/>
   <path class="fil1" d="M7108.24 7588.42c-37.51,150.93 -11.4,2551.52 -12.31,2927.25 -1.18,486.22 -2.07,973.08 -0.91,1459.24 1.36,559.43 -62.37,612.72 134.62,612.02 197.95,-0.72 535.43,18.7 716.31,-11.31 34.78,-356.46 4.32,-870.63 5.79,-1245.06l3 -3601.9c-0.58,-114.95 -17.71,-100.24 -19.67,-117.11 -7.62,-65.27 -737.55,-33.57 -826.83,-23.13z"/>
  </g>
 </g>
</svg>
