<?xml version="1.0" encoding="UTF-8"?>
<!DOCTYPE svg PUBLIC "-//W3C//DTD SVG 1.1//EN" "http://www.w3.org/Graphics/SVG/1.1/DTD/svg11.dtd">
<!-- Creator: CorelDRAW 2018 (64-Bit) -->
<svg xmlns="http://www.w3.org/2000/svg" xml:space="preserve" width="297mm" height="210mm" version="1.1" style="shape-rendering:geometricPrecision; text-rendering:geometricPrecision; image-rendering:optimizeQuality; fill-rule:evenodd; clip-rule:evenodd"
viewBox="0 0 29700 21000"
 xmlns:xlink="http://www.w3.org/1999/xlink">
 <defs>
  <style type="text/css">
   <![CDATA[
    .fil0 {fill:#FEFEFE}
    .fil1 {fill:#E31E24}
    .fil2 {fill:#838383}
    .fil3 {fill:#B5B5B5}
   ]]>
  </style>
 </defs>
 <g id="Katman_x0020_1">
  <metadata id="CorelCorpID_0Corel-Layer"/>
  <g id="_2048119584272">
   <path class="fil0" d="M12294.03 19951.61c125,-83.57 568.06,-547.68 708.91,-690.44l2084.94 -2084.25c478.3,-467.75 933.76,-965.06 1390.49,-1394.43l1048.08 -1056.24c76.08,-78.01 302.72,-274.08 326.28,-369.61l-1465.37 0.82c-611.1,-1.62 -496.71,-46.97 -741.21,193.53l-3803.95 3796.32c-108.58,109.37 -517.15,469.27 -562.93,616.39 38.27,33.79 92.16,93.04 127.04,133.63 131.97,153.61 814.27,833.13 887.72,854.28z"/>
   <path class="fil0" d="M12805.7 6914.86l1487.05 -3.16c-2.69,-102.16 -922.95,-965.79 -1012.47,-1057.39 -125.97,-128.91 -980.36,-1013.22 -1062.05,-1042.39 -107.48,70.54 -469.4,456.93 -595.98,579.99 -534.08,519.25 -444.6,418.39 -254.81,613.12l878.98 882.38c82.07,58.27 429.54,28.45 559.28,27.45z"/>
  </g>
  <g id="_2084015597712">
   <path class="fil1" d="M8366.67 2742.21c121.7,-121.93 314.51,-265.15 387.28,-411.98 -112.06,-116.8 -949.52,-973.58 -1027,-1004.33l-484.74 462.63c-261.4,260.29 -452.97,471.8 -710.08,710.4l-702.46 700.71c-436.65,438.42 -993.72,970.15 -1414.67,1409.49 -156.87,163.72 -322.92,307.73 -466.03,462.83 -312.6,338.81 -622.31,620.98 -944.85,950.27l-942.13 932.92c-231.73,220.37 -1801.15,1769.92 -1865.69,1894.27 44.94,113.33 135.62,169.46 220.33,260.88 82.94,89.52 151.82,158.78 234.76,239.3 177.23,172.06 317.54,316.66 473.94,473.2l4701.2 4679.31c457.22,446.87 964.55,974.77 1419.61,1404.23 569.91,537.84 401.13,589.87 770.36,225.58l508.27 -515.02c65.72,-64.81 210.41,-172.33 250.89,-248.27 -32.1,-102.54 -106.68,-143.92 -194.16,-229.36l-1636.78 -1623.06c-62.25,-59.12 -134.19,-129.07 -200.78,-196.66l-4493.73 -4470.13 6116.46 -6107.21z"/>
   <path class="fil2" d="M5225.49 9379.11c94.54,-39.9 1446.2,-1408.99 1635.82,-1603.55 551.08,-565.37 1098.18,-1093.54 1632.25,-1627.58 277.45,-277.43 521.93,-535.37 816.91,-812.7 272.22,-255.92 522.34,-542.11 815.97,-813.27 132.8,-122.63 283.76,-285.54 408.13,-407.88l607.47 -605.8c78.16,-72.15 125.81,-139.33 206.59,-208.74 104.88,-90.12 308.84,-351.79 414.78,-403.56 70.43,30.83 266.77,242.61 320.24,305.98 97.57,115.69 209.41,214.37 311.81,315.44 97.13,95.85 225.69,218.8 313.4,312.16 213.42,227.17 449.24,436.55 631.25,638.48 47.14,52.31 96.85,107.35 146.28,156.76 53.29,53.26 114.36,100.5 168.9,153.3 683.22,661.62 1388.9,1384.2 2046.27,2047.46 85.08,85.84 75.48,90.28 230.25,89.8 215.04,-0.67 430,-0.98 645.04,-1.22 415.1,-0.46 851.26,10.52 1263.74,-6.2 -10.27,-57.67 -131.09,-152.63 -170.92,-193.64 -680.9,-701.16 -1418.27,-1410.2 -2084.99,-2084.49 -234.32,-236.99 -499.09,-519.02 -763,-772.01 -275.02,-263.62 -466.63,-447.99 -757.57,-758.13 -268.7,-286.4 -498.8,-482.5 -769.73,-764.97 -265.83,-277.13 -509.83,-508.41 -755.31,-761.33 -91.95,-94.73 -699.09,-723.07 -775.66,-758.75 -89.02,36.39 -898.71,868.18 -1075.3,1046l-5883.67 5885.73c-96.32,93.49 -177.26,174.48 -269.09,259.96 -109.59,102 -183.18,166.51 -279.62,272.29 -92.53,101.49 -23.49,128.39 156.11,304 132.05,129.14 760.94,770.33 813.65,796.46z"/>
   <path class="fil3" d="M1776.49 11955.18c-86.34,19.19 -716.87,698.17 -818.47,793.73 -191.29,179.93 -237.14,199.35 -145.91,305.01l1057.68 1064.92c212.23,190.93 368.03,362.7 533.95,527.5l1062 1060.53c517.07,525.13 1070.28,1058.86 1586.58,1597.92 93.66,97.8 182.61,167.14 272.13,257.97l795.18 796.07c327.85,318.11 736.16,725.44 1064.57,1059.18l797.9 793.24c50.73,52 205.92,231.99 275.48,255.25l776.08 -759.73c116.01,-132.96 247.88,-231.48 390.74,-385.4l770.67 -765.25c122.09,-140.22 254.45,-256.04 377.87,-378.88l1911.83 -1897.93c334.81,-309.44 858.71,-851.5 1149.5,-1143.34 118.63,-119.05 260.61,-257.61 380.79,-377.23 84.94,-84.55 346.97,-283.14 370.43,-400.89 -603.89,-16.62 -1298.04,-0.75 -1921.65,-3.34 -155.91,-0.65 -148.46,18.6 -228.25,102.89 -408.09,431.11 -983.18,963.28 -1427.33,1416.58l-1275.26 1262.14c-209.89,213.29 -441.8,429.47 -638.98,631.48 -97.52,99.9 -547.79,573.46 -636.44,609.71l-2035.68 -2015.27c-114.88,-116.5 -264,-275.56 -400.23,-396.73 -363.54,-323.37 -1184.03,-1189.05 -1615.59,-1604.63 -67.89,-65.38 -140.55,-144.2 -207.55,-210.1 -327.16,-321.85 -2178.21,-2178.69 -2222.04,-2195.4z"/>
   <path class="fil1" d="M14615.45 12383.41c-31.89,-151.3 -24.25,-1256 -4.6,-1443.25 478.74,-34.92 1096.44,-7.94 1587.43,-3.25 1045.39,9.97 1025.37,995.9 634.02,1274.6 -337.88,240.62 -952.38,176.04 -1411.42,177.27 -224.08,0.58 -598.77,22.62 -805.43,-5.37zm-3.75 -3489.82c221.26,-21.34 522.46,-4.36 752.32,-4.1 675.23,0.73 1562.88,-134.04 1556.06,661.4 -4.2,490.14 -345.1,659.63 -835.93,657.14 -467.62,-2.39 -1016.33,30.61 -1480.03,-1.11l7.58 -1313.33zm2609.74 1642.49c41.54,-92.65 530.58,-303.22 571.97,-946.74 62.44,-970.87 -667.9,-1430.85 -1557.64,-1437.85l-2255.18 -0.76c-182,-1 -242.95,-48.94 -243.65,128.34 -2.76,691.87 -18.21,4819.18 16.29,4855.92 94.52,48.6 1630.08,22.89 1876.11,22.73 686.84,-0.47 1121.27,32 1650.16,-231.1 226.36,-112.6 374.3,-250.78 497.94,-450.01 275.92,-444.63 263.74,-1346.35 -298.64,-1744.32 -81.71,-57.82 -208.65,-135.3 -257.36,-196.21z"/>
   <path class="fil1" d="M19826.83 9929.65c87.71,-388.4 479.5,-792.15 820.96,-950.73 441.36,-204.96 1059.82,-173.9 1479.29,25.42 771.98,366.81 1141.06,1478.33 799.52,2501.72 -243.03,728.25 -825.17,1078.08 -1574.21,1077.88 -708.78,-0.19 -1336.41,-379.61 -1540.43,-1094.1 -187.28,-655.86 -117.77,-959.34 2.83,-1562.69l12.04 2.5zm4089.33 1118.11c101.47,-808.71 -152.34,-1555.42 -530.29,-2052.34 -828.02,-1088.65 -2657.39,-1229.14 -3709.16,-344.42 -1427.18,1200.48 -1185.91,4418.67 1341.36,4697.04 830.08,91.43 1576.68,-155.69 2036.61,-559.34 507.67,-445.6 759.5,-928.09 861.48,-1740.94z"/>
   <path class="fil1" d="M11280.34 8158.42c-37.51,150.93 -11.4,2551.52 -12.31,2927.25 -1.18,486.22 -2.07,973.08 -0.91,1459.24 1.36,559.43 -62.37,612.72 134.62,612.02 197.95,-0.72 535.43,18.7 716.31,-11.31 34.78,-356.46 4.32,-870.63 5.79,-1245.06l3 -3601.9c-0.58,-114.95 -17.71,-100.24 -19.67,-117.11 -7.62,-65.27 -737.55,-33.57 -826.83,-23.13z"/>
  </g>
  <g id="_2084015601104">
   <path class="fil0" d="M27351.49 14522.21c90.84,-44.88 192.17,-17.67 258.88,28.36 91.46,63.11 80.52,104.41 80.61,249.21 0.07,107.1 7.51,238.15 0.25,342.27 -6.34,90.51 -64.41,131.74 -152.73,157.18 -223.58,64.38 -349.85,-91.48 -361.24,-290.77 -14.38,-251.2 2.78,-401.57 174.23,-486.25zm330.39 -222.47c-117.57,-53.88 -150,-107.66 -322.22,-109.51 -377.59,-4.07 -573.38,327.8 -575.17,723.62 -2.75,606.99 461.92,868.53 888.78,597.48 8.32,191.14 -59.01,298.95 -221.27,326.6 -251.19,42.81 -265.66,-71.97 -414.45,-136.5 -78.17,39.72 -131.8,126.76 -153.43,216.77 78.96,173.59 394.91,239.75 626.34,215.19 664.51,-70.5 549.11,-609.51 551.38,-1105.89 0.94,-207.36 25,-625.57 -6.16,-815.19l-342.65 6.85 -31.15 80.58z"/>
   <path class="fil0" d="M19895.06 14966.84c-56.22,-25.26 -171.91,-15.94 -250.08,-15.19 -137.86,1.32 -114.38,7.55 -134.89,131.38 -23.22,140.14 -149.12,214.13 -299.17,220.12 -357.37,14.25 -398.24,-313.91 -397.43,-635.71 0.82,-326.18 40.82,-651.69 397.19,-637.09 153.14,6.27 263.45,95.32 301.98,218.14 40.37,128.73 -41.25,143.13 408.5,126.62 -50.59,-794.91 -1042.81,-850.27 -1369.63,-328.42 -181.58,289.92 -188.26,966.53 16.69,1281.89 254.86,392.14 859.3,349.32 1107.74,147.19 188.54,-153.41 240.14,-291.08 224.73,-494.53 -0.59,-7.82 -3.05,-9.94 -5.63,-14.4z"/>
   <path class="fil0" d="M23718.32 14765.26c21.98,-339.82 513.65,-364.98 485.04,10.16l-485.04 -10.16zm647.2 429.64c-124.5,64.62 -330.39,215.3 -525.64,54.2 -33.42,-27.57 -162.97,-160.85 -74.2,-210.26l807.85 -12.62c176.34,-1003.47 -1037.25,-1068.22 -1207.57,-409.23 -96.14,372.02 -5.82,780.96 259.95,922.97 265.18,141.72 826.87,106.75 916.62,-171.33 -37.06,-72.77 -117.28,-145.32 -177.01,-173.73z"/>
   <path class="fil0" d="M20865.33 14983.24l2.24 233.77c-459.24,406.86 -624.56,-367.99 -2.24,-233.77zm-383.52 -371.91c114.69,-274.29 429.45,-147.44 382.02,134.97 -247.47,26.97 -435.77,-23.37 -624.5,116.19 -333.15,246.36 -152.31,868.29 406.87,748.13 52.6,-11.31 93.03,-41.59 157.59,-45.23 128.47,-7.26 50.59,16.01 138.1,35.24 54.82,12.06 278.18,7.26 343.15,3.17 11.07,-43.8 -27.88,-229.92 -29.2,-329.84 -1.7,-126.57 -2.44,-252.51 -2.47,-379.12 -0.03,-253.97 13.98,-447.43 -166.93,-588 -287.3,-223.28 -999.25,-132.68 -971.08,311.43l366.45 -6.94z"/>
   <path class="fil0" d="M25795.16 15217.01c-51.67,-188.72 142.59,-257.86 314.66,-252.35 84.65,2.71 85.41,13.18 87.68,99.02 9.52,359.17 -360.01,308.02 -402.34,153.33zm17.81 -601.9c117.61,-279.98 415.6,-161.94 375.4,131.21 -228.66,35.7 -831.82,-65.9 -784.78,509.05 27.69,338.64 367.53,410.23 602.79,348.93 81.27,-21.17 129.12,-76.01 205,-108.33l30.25 92.91c106.54,16.56 282.83,22.11 386.3,-3.61 3.43,-80.81 -45.18,-172.99 -45.64,-310.79 -1.34,-396.15 53.45,-794.3 -169.67,-967.21 -309.64,-239.96 -1002.53,-114.22 -962.72,304.08l363.07 3.76z"/>
   <path class="fil0" d="M29163.4 14765.41l-472.64 9.25c-76.89,-344.57 513.94,-393.43 472.64,-9.25zm148.21 417.01c-122.62,73.52 -176.72,164.26 -393.65,134.9 -138.86,-18.79 -239.41,-136.24 -247.29,-283.66l857.68 -16.84c64.31,-376.8 -109.8,-733.62 -423.55,-808.24 -882.17,-209.79 -1068.35,989 -522.43,1320.96 247.57,150.56 841.52,134.21 906.62,-160.91 -25.51,-51.41 -121.68,-158.52 -177.38,-186.21z"/>
   <path class="fil0" d="M24796.56 15599.76c294.88,14.28 375.77,42.77 387.69,-77.28l-4.13 -1309.88c-0.57,-633.88 83.45,-598.78 -372.64,-560.87 -31.67,132.99 -31.26,1755.61 -10.92,1948.03z"/>
   <path class="fil0" d="M21883.12 15594.69c75.79,-510.97 -146.5,-915.87 155,-1018.46 149.3,-50.8 207.71,20.38 252.6,-51.78 20.49,-32.94 21.02,-226.4 8.72,-271.99 -24.05,-89.14 -160.78,-66.7 -233.12,-47.15 -87.18,23.54 -111.65,69.01 -164.37,113.2 -25.73,-53.84 4.59,-46.1 -37.89,-101.26 -95.52,-3.76 -272.82,-27.19 -337.46,18.26 -49.99,73.44 -34.68,1186.81 -17.96,1366.97l374.48 -7.79z"/>
   <path class="fil0" d="M22822.7 15588.51c2.29,-5.25 4.21,-11.94 5.31,-16.33 24.71,-98.67 13.75,-595.23 13.44,-696.51 -1.26,-417.21 174.76,-256.88 381.7,-326.67 23.16,-67.08 35.1,-250.64 0.06,-317.44 -48.46,-34.77 42.21,-6.5 -70.17,-29.55 -194.07,-39.8 -306.3,125.01 -345.46,148.5 -11.59,-118.89 49.23,-162.29 -334.64,-133.38 -22.1,84.22 -21.46,1254.66 -5.97,1381.59 109.07,7.94 271.86,23.68 355.73,-10.21z"/>
  </g>
 </g>
</svg>
